<svg xmlns="http://www.w3.org/2000/svg" width="248.501" height="155.788" viewBox="0 0 248.501 155.788">
  <path id="behance" d="M100.09,75.106c13.719-6.558,20.881-16.48,20.881-31.925,0-30.459-22.693-37.879-48.88-37.879H0V158.2H74.119C101.9,158.2,128,144.867,128,113.8c0-19.2-9.1-33.392-27.913-38.7ZM33.608,31.4H65.145c12.123,0,23.038,3.408,23.038,17.473,0,12.986-8.5,18.206-20.493,18.206H33.608V31.4ZM69.546,132.227H33.608V90.12H70.236c14.8,0,24.16,6.169,24.16,21.83C94.4,127.395,83.222,132.227,69.546,132.227ZM224.211,28.383h-62V13.326h62V28.383Zm24.289,76.06c0-32.745-19.155-60.054-53.885-60.054-33.737,0-56.646,25.368-56.646,58.587,0,34.471,21.7,58.113,56.646,58.113,26.446,0,43.574-11.907,51.814-37.232H219.6c-2.891,9.448-14.8,14.453-24.03,14.453-17.818,0-27.18-10.44-27.18-28.172h79.857C248.371,108.326,248.5,106.384,248.5,104.443Zm-80.072-13.46c.992-14.539,10.656-23.642,25.238-23.642,15.272,0,22.952,8.974,24.246,23.642Z" transform="translate(0 -5.302)"/>
</svg>
