<svg xmlns="http://www.w3.org/2000/svg" width="213.987" height="208.64" viewBox="0 0 213.987 208.64">
  <path id="github" d="M71.573,168.559c0,.863-.992,1.553-2.243,1.553-1.424.129-2.416-.561-2.416-1.553,0-.863.992-1.553,2.243-1.553C70.452,166.877,71.573,167.567,71.573,168.559Zm-13.417-1.941c-.3.863.561,1.855,1.855,2.114,1.122.431,2.416,0,2.675-.863s-.561-1.855-1.855-2.243A2.214,2.214,0,0,0,58.156,166.618Zm19.069-.733c-1.251.3-2.114,1.122-1.985,2.114.129.863,1.251,1.424,2.545,1.122,1.251-.3,2.114-1.122,1.985-1.985C79.641,166.316,78.476,165.755,77.225,165.885ZM105.613.563C45.774.563,0,45.992,0,105.83c0,47.845,30.113,88.787,73.126,103.2,5.522.992,7.464-2.416,7.464-5.22,0-2.675-.129-17.43-.129-26.49,0,0-30.2,6.471-36.542-12.856,0,0-4.918-12.554-11.994-15.79,0,0-9.88-6.773.69-6.644a22.773,22.773,0,0,1,16.653,11.131c9.448,16.653,25.281,11.864,31.451,9.017.992-6.9,3.8-11.692,6.9-14.539-24.117-2.675-48.449-6.169-48.449-47.672,0-11.864,3.279-17.818,10.182-25.411-1.122-2.8-4.789-14.366,1.122-29.294,9.017-2.8,29.768,11.648,29.768,11.648a101.92,101.92,0,0,1,54.187,0s20.752-14.5,29.768-11.648c5.911,14.97,2.243,26.489,1.122,29.294,6.9,7.636,11.131,13.59,11.131,25.411,0,41.632-25.411,44.954-49.528,47.672,3.969,3.408,7.334,9.88,7.334,20.018,0,14.539-.129,32.529-.129,36.067,0,2.8,1.985,6.213,7.464,5.22,43.142-14.323,72.393-55.266,72.393-103.111C213.987,45.992,165.451.563,105.613.563Zm-63.678,148.8c-.561.431-.431,1.424.3,2.243.69.69,1.683.992,2.243.431.561-.431.431-1.424-.3-2.243C43.488,149.1,42.5,148.8,41.934,149.361Zm-4.659-3.495c-.3.561.129,1.251.992,1.683a1.284,1.284,0,0,0,1.855-.3c.3-.561-.129-1.251-.992-1.683C38.267,145.306,37.577,145.435,37.275,145.866Zm13.978,15.359c-.69.561-.431,1.855.561,2.675.992.992,2.243,1.122,2.8.431.561-.561.3-1.855-.561-2.675C53.108,160.664,51.814,160.535,51.253,161.225Zm-4.918-6.342c-.69.431-.69,1.553,0,2.545s1.855,1.424,2.416.992a1.968,1.968,0,0,0,0-2.675C48.147,154.754,47.025,154.322,46.335,154.883Z" transform="translate(0 -0.563)"/>
</svg>
