<svg xmlns="http://www.w3.org/2000/svg" width="193.278" height="193.274" viewBox="0 0 193.278 193.274">
  <path id="linkedin" d="M43.263,193.275H3.193V64.236H43.263ZM23.206,46.633A23.317,23.317,0,1,1,46.413,23.207,23.4,23.4,0,0,1,23.206,46.633ZM193.235,193.275H153.251V130.459c0-14.97-.3-34.169-20.833-34.169-20.833,0-24.026,16.265-24.026,33.09v63.894H68.364V64.236h38.431v17.6h.561C112.705,71.7,125.773,61,145.269,61c40.554,0,48.009,26.705,48.009,61.392v70.883Z" transform="translate(0 -0.001)"/>
</svg>
